<svg width="50" height="50" viewBox="0 0 50 50" fill="none" xmlns="http://www.w3.org/2000/svg">
<path d="M39.5832 4.16667H18.7499C16.452 4.16667 14.5832 6.03542 14.5832 8.33334V19.9708L4.77696 29.7771C4.4857 30.0684 4.28735 30.4396 4.207 30.8437C4.12665 31.2478 4.16791 31.6666 4.32555 32.0472C4.4832 32.4278 4.75016 32.7532 5.09268 32.9821C5.4352 33.211 5.8379 33.3333 6.24988 33.3333V43.75C6.24988 44.3025 6.46937 44.8324 6.86008 45.2231C7.25078 45.6138 7.78068 45.8333 8.33322 45.8333H41.6665C42.2191 45.8333 42.749 45.6138 43.1397 45.2231C43.5304 44.8324 43.7499 44.3025 43.7499 43.75V8.33334C43.7499 6.03542 41.8811 4.16667 39.5832 4.16667ZM22.9165 41.6667H10.4165V30.0292L16.6665 23.7792L22.9165 30.0292V41.6667ZM39.5832 41.6667H27.0832V33.3333C27.4956 33.3343 27.899 33.2126 28.2422 32.9839C28.5854 32.7551 28.8528 32.4295 29.0107 32.0485C29.1685 31.6675 29.2095 31.2481 29.1286 30.8437C29.0477 30.4393 28.8484 30.0681 28.5561 29.7771L18.7499 19.9708V8.33334H39.5832V41.6667Z" fill="#FF7F27"/>
<path d="M22.9166 12.5H27.0833V16.6667H22.9166V12.5ZM31.2499 12.5H35.4166V16.6667H31.2499V12.5ZM31.2499 20.8979H35.4166V25H31.2499V20.8979ZM31.2499 29.1667H35.4166V33.3333H31.2499V29.1667ZM14.5833 31.25H18.7499V35.4167H14.5833V31.25Z" fill="#FF7F27"/>
</svg>
