<svg width="50" height="50" viewBox="0 0 50 50" fill="none" xmlns="http://www.w3.org/2000/svg">
<path d="M12.6042 16.7708C9.87257 19.5077 8.33838 23.2165 8.33838 27.0833C8.33838 30.9501 9.87257 34.659 12.6042 37.3958C15.4584 40.25 19.1876 41.6667 22.9167 41.6667C26.6459 41.6667 30.3751 40.25 33.2292 37.3958C40.4792 30.1458 41.6667 8.33333 41.6667 8.33333C41.6667 8.33333 19.8542 9.52083 12.6042 16.7708ZM30.2917 34.4583C28.3126 36.4167 25.7084 37.5 22.9167 37.5C21.0626 37.5 19.3126 36.9792 17.7501 36.0833C19.6667 30.0833 23.2084 24.8125 27.9167 20.8333C22.4376 23.6667 17.8334 28.0417 14.6459 33.3333C11.5626 29.25 11.8334 23.4375 15.5626 19.7083C19.1876 16.0833 29.2501 13.8542 37.0834 12.9167C36.1459 20.75 33.9167 30.8125 30.2917 34.4583Z" fill="#FF7F27"/>
</svg>
