<svg width="23" height="22" viewBox="0 0 23 22" fill="none" xmlns="http://www.w3.org/2000/svg">
<path d="M11.3816 7.33164C9.36174 7.33164 7.7134 8.97997 7.7134 10.9998C7.7134 13.0196 9.36174 14.668 11.3816 14.668C13.4014 14.668 15.0497 13.0196 15.0497 10.9998C15.0497 8.97997 13.4014 7.33164 11.3816 7.33164ZM22.3833 10.9998C22.3833 9.4808 22.3971 7.97556 22.3117 6.45931C22.2264 4.69815 21.8247 3.13513 20.5368 1.84728C19.2462 0.556684 17.686 0.157672 15.9248 0.0723655C14.4058 -0.0129406 12.9006 0.000818509 11.3843 0.000818509C9.86532 0.000818509 8.36008 -0.0129406 6.84383 0.0723655C5.08268 0.157672 3.51965 0.559435 2.2318 1.84728C0.941205 3.13788 0.542193 4.69815 0.456887 6.45931C0.371581 7.97831 0.38534 9.48355 0.38534 10.9998C0.38534 12.516 0.371581 14.024 0.456887 15.5403C0.542193 17.3014 0.943957 18.8645 2.2318 20.1523C3.5224 21.4429 5.08268 21.8419 6.84383 21.9272C8.36283 22.0125 9.86807 21.9988 11.3843 21.9988C12.9033 21.9988 14.4086 22.0125 15.9248 21.9272C17.686 21.8419 19.249 21.4402 20.5368 20.1523C21.8274 18.8617 22.2264 17.3014 22.3117 15.5403C22.3998 14.024 22.3833 12.5188 22.3833 10.9998ZM11.3816 16.6438C8.25826 16.6438 5.73761 14.1231 5.73761 10.9998C5.73761 7.87649 8.25826 5.35584 11.3816 5.35584C14.5049 5.35584 17.0255 7.87649 17.0255 10.9998C17.0255 14.1231 14.5049 16.6438 11.3816 16.6438ZM17.2567 6.4428C16.5274 6.4428 15.9386 5.85391 15.9386 5.12469C15.9386 4.39546 16.5274 3.80657 17.2567 3.80657C17.9859 3.80657 18.5748 4.39546 18.5748 5.12469C18.575 5.29784 18.5411 5.46934 18.4749 5.62936C18.4087 5.78938 18.3116 5.93478 18.1892 6.05722C18.0668 6.17966 17.9214 6.27674 17.7614 6.34291C17.6013 6.40907 17.4298 6.44302 17.2567 6.4428Z" fill="#FF7F27"/>
</svg>
