<svg width="41" height="41" viewBox="0 0 41 41" fill="none" xmlns="http://www.w3.org/2000/svg">
<path d="M16.7255 7.53683C18.7981 7.53679 20.8272 8.13128 22.5721 9.24978C24.317 10.3683 25.7044 11.9638 26.5697 13.8471C27.435 15.7304 27.742 17.8224 27.4541 19.8749C27.1662 21.9274 26.2956 23.8543 24.9455 25.4268L34.3522 34.8335L33.1739 36.0118L23.7655 26.6035C22.4386 27.7382 20.8572 28.5354 19.1558 28.9272C17.4545 29.319 15.6836 29.2938 13.9941 28.8537C12.3046 28.4137 10.7464 27.5718 9.45237 26.3998C8.15833 25.2278 7.16671 23.7604 6.56198 22.1226C5.95725 20.4847 5.75732 18.725 5.97921 16.9933C6.20111 15.2616 6.83826 13.6091 7.8364 12.1767C8.83454 10.7442 10.1641 9.57427 11.7118 8.7664C13.2596 7.95853 14.9796 7.5367 16.7255 7.53683ZM16.7255 9.2035C14.2944 9.2035 11.9628 10.1693 10.2437 11.8884C8.52463 13.6074 7.55886 15.939 7.55886 18.3702C7.55886 20.8013 8.52463 23.1329 10.2437 24.852C11.9628 26.5711 14.2944 27.5368 16.7255 27.5368C19.1567 27.5368 21.4883 26.5711 23.2073 24.852C24.9264 23.1329 25.8922 20.8013 25.8922 18.3702C25.8922 15.939 24.9264 13.6074 23.2073 11.8884C21.4883 10.1693 19.1567 9.2035 16.7255 9.2035Z" fill="white"/>
</svg>
