<svg width="26" height="26" viewBox="0 0 26 26" fill="none" xmlns="http://www.w3.org/2000/svg">
<rect width="26" height="26" rx="13" fill="#FF7F27"/>
<path d="M17.3751 18.8333C17.8575 18.8333 18.2501 18.4408 18.2501 17.9583V15.9167C18.2501 15.4343 17.8575 15.0417 17.3751 15.0417C16.6926 15.0417 16.0217 14.9343 15.3801 14.7226C15.2267 14.6741 15.063 14.6683 14.9066 14.7056C14.7501 14.7428 14.6067 14.8219 14.4917 14.9343L13.6517 15.7743C12.1998 14.9861 11.0074 13.7942 10.2187 12.3426L11.0517 11.5043C11.2921 11.2815 11.3784 10.9426 11.2757 10.6165C11.0644 9.97384 10.9573 9.30151 10.9584 8.625C10.9584 8.14258 10.5658 7.75 10.0834 7.75H8.04175C7.55933 7.75 7.16675 8.14258 7.16675 8.625C7.16675 14.2542 11.7459 18.8333 17.3751 18.8333ZM8.04175 8.33333H10.0834C10.1608 8.33333 10.235 8.36406 10.2897 8.41876C10.3444 8.47346 10.3751 8.54765 10.3751 8.625C10.3751 9.36992 10.4917 10.1014 10.721 10.795C10.7378 10.8453 10.7398 10.8995 10.7267 10.9509C10.7135 11.0023 10.6858 11.0488 10.6469 11.0849L9.50591 12.2318C10.4608 14.1148 11.8713 15.5253 13.7631 16.4883L14.9 15.3508C14.9388 15.3124 14.9873 15.2853 15.0403 15.2724C15.0933 15.2594 15.1489 15.2611 15.201 15.2773C15.8987 15.5083 16.6302 15.625 17.3751 15.625C17.5355 15.625 17.6667 15.7563 17.6667 15.9167V17.9583C17.6667 18.1188 17.5355 18.25 17.3751 18.25C12.0679 18.25 7.75008 13.9322 7.75008 8.625C7.75008 8.54765 7.78081 8.47346 7.83551 8.41876C7.89021 8.36406 7.96439 8.33333 8.04175 8.33333Z" fill="#151522"/>
</svg>
