<svg width="50" height="50" viewBox="0 0 50 50" fill="none" xmlns="http://www.w3.org/2000/svg">
<path d="M25 3.125L6.25 9.375V28.125C6.25 38.4814 14.6436 46.875 25 46.875C35.3564 46.875 43.75 38.4814 43.75 28.125V9.375L25 3.125ZM40.2344 28.125C40.2344 36.5381 33.4131 43.3594 25 43.3594C16.5869 43.3594 9.76562 36.5381 9.76562 28.125V12.0117L25 6.64062L40.2344 12.0117V28.125Z" fill="#FF7F27"/>
<path d="M18.4766 23.1982C18.3137 23.0346 18.12 22.9047 17.9068 22.8161C17.6935 22.7275 17.4649 22.6819 17.2339 22.6819C17.003 22.6819 16.7743 22.7275 16.5611 22.8161C16.3478 22.9047 16.1542 23.0346 15.9912 23.1982C15.8276 23.3612 15.6977 23.5548 15.6091 23.7681C15.5205 23.9813 15.4749 24.21 15.4749 24.4409C15.4749 24.6719 15.5205 24.9005 15.6091 25.1138C15.6977 25.327 15.8276 25.5207 15.9912 25.6836L22.3096 32.002L22.4121 32.1045C22.5663 32.2589 22.7493 32.3814 22.9508 32.465C23.1523 32.5485 23.3683 32.5916 23.5865 32.5916C23.8046 32.5916 24.0206 32.5485 24.2221 32.465C24.4236 32.3814 24.6067 32.2589 24.7608 32.1045L35.6739 21.1914C35.8283 21.0373 35.9508 20.8543 36.0343 20.6527C36.1179 20.4512 36.1609 20.2352 36.1609 20.0171C36.1609 19.7989 36.1179 19.5829 36.0343 19.3814C35.9508 19.1799 35.8283 18.9969 35.6739 18.8428L35.5371 18.7061C35.383 18.5517 35.2 18.4292 34.9985 18.3456C34.797 18.262 34.581 18.219 34.3628 18.219C34.1447 18.219 33.9287 18.262 33.7272 18.3456C33.5257 18.4292 33.3426 18.5517 33.1885 18.7061L23.584 28.3057L18.4766 23.1982Z" fill="#FF7F27"/>
</svg>
