<svg width="23" height="22" viewBox="0 0 23 22" fill="none" xmlns="http://www.w3.org/2000/svg">
<g clip-path="url(#clip0)">
<path d="M14.6763 15.2723V17.8627C14.6763 18.4111 14.4901 18.6853 14.1178 18.6853C13.8982 18.6853 13.6834 18.5952 13.4734 18.4152V14.7199C13.6834 14.5398 13.8982 14.4498 14.1178 14.4498C14.4901 14.4498 14.6763 14.724 14.6763 15.2723ZM19.5163 15.2846V15.8493H18.2276V15.2846C18.2276 14.7281 18.4424 14.4498 18.872 14.4498C19.3015 14.4498 19.5163 14.7281 19.5163 15.2846ZM5.68348 12.6083H7.21569V11.4542H2.74794V12.6083H4.25151V19.5938H5.68348V12.6083ZM9.80757 19.5938H11.082V13.529H9.80757V18.1696C9.52117 18.5134 9.2491 18.6853 8.99134 18.6853C8.8195 18.6853 8.71927 18.5993 8.69063 18.4275C8.68108 18.4029 8.67631 18.2597 8.67631 17.9978V13.529H7.40185V18.3292C7.40185 18.7303 7.44004 19.029 7.51641 19.2254C7.63097 19.5283 7.90781 19.6797 8.34695 19.6797C8.80518 19.6797 9.29206 19.4301 9.80757 18.9308V19.5938ZM15.9507 17.7768V15.3583C15.9507 14.7608 15.9078 14.3557 15.8219 14.1429C15.6596 13.6845 15.3207 13.4554 14.8052 13.4554C14.3278 13.4554 13.8839 13.6763 13.4734 14.1183V11.4542H12.199V19.5938H13.4734V19.0045C13.903 19.4546 14.3469 19.6797 14.8052 19.6797C15.3207 19.6797 15.6596 19.4546 15.8219 19.0045C15.9078 18.7835 15.9507 18.3743 15.9507 17.7768ZM20.7908 17.654V17.4944H19.4877C19.4877 17.9118 19.4782 18.1615 19.4591 18.2433C19.3922 18.5379 19.2013 18.6853 18.8863 18.6853C18.4471 18.6853 18.2276 18.4029 18.2276 17.8382V16.7701H20.7908V15.5056C20.7908 14.859 20.6619 14.3843 20.4042 14.0815C20.0319 13.6641 19.5259 13.4554 18.8863 13.4554C18.2371 13.4554 17.7264 13.6641 17.3541 14.0815C17.0868 14.3843 16.9531 14.859 16.9531 15.5056V17.6295C16.9531 18.276 17.0915 18.7507 17.3684 19.0536C17.7407 19.471 18.2562 19.6797 18.9149 19.6797C19.6023 19.6797 20.1178 19.4628 20.4614 19.029C20.6333 18.808 20.7335 18.5871 20.7622 18.3661C20.7813 18.2924 20.7908 18.0551 20.7908 17.654ZM12.0844 6.44531V3.86719C12.0844 3.30246 11.8792 3.02009 11.4687 3.02009C11.0582 3.02009 10.8529 3.30246 10.8529 3.86719V6.44531C10.8529 7.01823 11.0582 7.30469 11.4687 7.30469C11.8792 7.30469 12.0844 7.01823 12.0844 6.44531ZM22.3803 15.6652C22.3803 17.5804 22.2562 19.0126 22.008 19.9621C21.8743 20.4449 21.5975 20.8501 21.1774 21.1775C20.7574 21.5048 20.2705 21.6931 19.7168 21.7422C17.9603 21.9141 15.3111 22 11.7694 22C8.22762 22 5.57847 21.9141 3.82192 21.7422C3.26822 21.6931 2.77896 21.5048 2.35414 21.1775C1.92933 20.8501 1.65486 20.4449 1.53076 19.9621C1.28255 19.0454 1.15845 17.6131 1.15845 15.6652C1.15845 13.75 1.28255 12.3177 1.53076 11.3683C1.66441 10.8854 1.94126 10.4803 2.3613 10.1529C2.78135 9.82552 3.27299 9.63318 3.83624 9.57589C5.58324 9.4122 8.22762 9.33036 11.7694 9.33036C15.3111 9.33036 17.9603 9.4122 19.7168 9.57589C20.2705 9.63318 20.7598 9.82552 21.1846 10.1529C21.6094 10.4803 21.8839 10.8854 22.008 11.3683C22.2562 12.285 22.3803 13.7173 22.3803 15.6652ZM8.0892 0H9.54981L7.81712 4.89844V8.22545H6.38515V4.89844C6.2515 4.29278 5.96033 3.42522 5.51165 2.29576C5.15843 1.45275 4.84817 0.6875 4.58086 0H6.09875L7.11546 3.22879L8.0892 0ZM13.3875 4.08817V6.23661C13.3875 6.89955 13.2538 7.38244 12.9865 7.68527C12.6238 8.10268 12.1178 8.31138 11.4687 8.31138C10.829 8.31138 10.3278 8.10268 9.96508 7.68527C9.69778 7.37426 9.56413 6.89137 9.56413 6.23661V4.08817C9.56413 3.43341 9.69778 2.95461 9.96508 2.65179C10.3278 2.23438 10.829 2.02567 11.4687 2.02567C12.1178 2.02567 12.6238 2.23438 12.9865 2.65179C13.2538 2.95461 13.3875 3.43341 13.3875 4.08817ZM18.1846 2.09933V8.22545H16.8815V7.55022C16.3756 8.05766 15.8839 8.31138 15.4066 8.31138C14.9674 8.31138 14.6858 8.15997 14.5617 7.85714C14.4853 7.66071 14.4472 7.35379 14.4472 6.93638V2.09933H15.7503V6.60491C15.7503 6.875 15.755 7.01823 15.7646 7.0346C15.7932 7.21466 15.8935 7.30469 16.0653 7.30469C16.323 7.30469 16.5951 7.12872 16.8815 6.77679V2.09933H18.1846Z" fill="#FF7F27"/>
</g>
<defs>
<clipPath id="clip0">
<rect width="22" height="22" fill="white" transform="translate(0.769287)"/>
</clipPath>
</defs>
</svg>
